<svg xmlns="http://www.w3.org/2000/svg" viewBox="0 0 32 32">
  <defs>
    <linearGradient id="leafGradient" x1="0%" y1="0%" x2="100%" y2="100%">
      <stop offset="0%" style="stop-color:#7B7A2A;stop-opacity:1" />
      <stop offset="100%" style="stop-color:#626222;stop-opacity:1" />
    </linearGradient>
  </defs>
  <!-- Background circle -->
  <circle cx="16" cy="16" r="15" fill="#F6F1E6" stroke="#7B7A2A" stroke-width="1"/>
  <!-- Stylized leaf/plant icon representing "Jardinerie" -->
  <path d="M16 6 C16 6 12 12 12 18 C12 22 14 26 16 26 C18 26 20 22 20 18 C20 12 16 6 16 6 Z" fill="url(#leafGradient)"/>
  <path d="M16 14 C16 14 10 16 8 20 C10 18 14 17 16 18 Z" fill="#7B7A2A" opacity="0.7"/>
  <path d="M16 14 C16 14 22 16 24 20 C22 18 18 17 16 18 Z" fill="#7B7A2A" opacity="0.7"/>
</svg>
